<svg width="16" height="21" viewBox="0 0 16 21" fill="none" xmlns="http://www.w3.org/2000/svg">
<path fill-rule="evenodd" clip-rule="evenodd" d="M5 5.4375C5 3.78065 6.34315 2.4375 8 2.4375C9.65685 2.4375 11 3.78065 11 5.4375V7.4375H5V5.4375ZM3 7.4375V5.4375C3 2.67608 5.23858 0.4375 8 0.4375C10.7614 0.4375 13 2.67608 13 5.4375V7.4375C14.6569 7.4375 16 8.78065 16 10.4375V17.4375C16 19.0944 14.6569 20.4375 13 20.4375H3C1.34315 20.4375 0 19.0944 0 17.4375V10.4375C0 8.78065 1.34315 7.4375 3 7.4375ZM12 9.4375H4H3C2.44772 9.4375 2 9.88522 2 10.4375V17.4375C2 17.9898 2.44772 18.4375 3 18.4375H13C13.5523 18.4375 14 17.9898 14 17.4375V10.4375C14 9.88522 13.5523 9.4375 13 9.4375H12Z" fill="#454545"/>
</svg>
